<svg width="83" height="69" viewBox="0 0 83 69" fill="none" xmlns="http://www.w3.org/2000/svg">
<g clip-path="url(#clip0_346_22)">
<g filter="url(#filter0_ii_346_22)">
<path d="M75.0709 37.6626L58.2744 14.4499L24.6813 14.4499L7.88477 37.6626L24.6813 60.8752" stroke="url(#paint0_linear_346_22)"/>
</g>
<path d="M58.262 29.2399C57.8476 27.6694 56.6267 26.4325 55.0766 26.0127C52.2668 25.25 41 25.25 41 25.25C41 25.25 29.7333 25.25 26.9234 26.0127C25.3733 26.4326 24.1524 27.6694 23.738 29.2399C22.9852 32.0865 22.9852 38.0258 22.9852 38.0258C22.9852 38.0258 22.9852 43.965 23.738 46.8116C24.1524 48.3822 25.3733 49.5675 26.9234 49.9873C29.7333 50.75 41 50.75 41 50.75C41 50.75 52.2667 50.75 55.0766 49.9873C56.6267 49.5675 57.8476 48.3822 58.262 46.8116C59.0148 43.965 59.0148 38.0258 59.0148 38.0258C59.0148 38.0258 59.0148 32.0865 58.262 29.2399V29.2399ZM37.3151 43.4182V32.6334L46.7319 38.0259L37.3151 43.4182V43.4182Z" fill="white"/>
</g>
<defs>
<filter id="filter0_ii_346_22" x="6.26759" y="13.95" width="73.2084" height="51.2185" filterUnits="userSpaceOnUse" color-interpolation-filters="sRGB">
<feFlood flood-opacity="0" result="BackgroundImageFix"/>
<feBlend mode="normal" in="SourceGraphic" in2="BackgroundImageFix" result="shape"/>
<feColorMatrix in="SourceAlpha" type="matrix" values="0 0 0 0 0 0 0 0 0 0 0 0 0 0 0 0 0 0 127 0" result="hardAlpha"/>
<feOffset dx="-1" dy="3"/>
<feGaussianBlur stdDeviation="2"/>
<feComposite in2="hardAlpha" operator="arithmetic" k2="-1" k3="1"/>
<feColorMatrix type="matrix" values="0 0 0 0 0.214857 0 0 0 0 0.470833 0 0 0 0 0.0137326 0 0 0 0.65 0"/>
<feBlend mode="normal" in2="shape" result="effect1_innerShadow_346_22"/>
<feColorMatrix in="SourceAlpha" type="matrix" values="0 0 0 0 0 0 0 0 0 0 0 0 0 0 0 0 0 0 127 0" result="hardAlpha"/>
<feOffset dx="5" dy="4"/>
<feGaussianBlur stdDeviation="2"/>
<feComposite in2="hardAlpha" operator="arithmetic" k2="-1" k3="1"/>
<feColorMatrix type="matrix" values="0 0 0 0 0.7125 0 0 0 0 1 0 0 0 0 0.425 0 0 0 0.25 0"/>
<feBlend mode="normal" in2="effect1_innerShadow_346_22" result="effect2_innerShadow_346_22"/>
</filter>
<linearGradient id="paint0_linear_346_22" x1="20.5423" y1="14.4499" x2="45.4518" y2="49.4129" gradientUnits="userSpaceOnUse">
<stop stop-color="#9BD700"/>
<stop offset="1" stop-color="white" stop-opacity="0"/>
</linearGradient>
<clipPath id="clip0_346_22">
<rect width="69" height="83" fill="white" transform="translate(0 69) rotate(-90)"/>
</clipPath>
</defs>
</svg>
