<?xml version="1.0" encoding="UTF-8"?>
<svg xmlns="http://www.w3.org/2000/svg" width="1000" height="150" viewBox="0 0 1000 150" fill="none">
  <path d="M19.5154 148.014L0 1.80506H26.0205L36.4287 91.1552L49.6109 1.98556H70.2414L83.9951 90.9747L94.4172 1.80506H120.061L100.723 148.014H74.7021L60.033 55.4152L46.0935 148.014H19.5154Z" fill="white"></path>
  <path d="M178.268 150C167.244 150 158.508 148.075 152.062 144.224C145.616 140.373 140.969 134.898 138.122 127.798C135.399 120.578 134.037 111.974 134.033 101.986V47.4729C134.033 37.485 135.396 28.941 138.122 21.8412C140.975 14.7443 145.622 9.32912 152.062 5.59567C158.502 1.86222 167.237 -0.00300479 178.268 3.63336e-06C189.42 3.63336e-06 198.217 1.92539 204.66 5.77618C211.231 9.50662 215.877 14.9218 218.6 22.0217C221.453 29.0042 222.878 37.488 222.875 47.4729V101.986C222.875 111.971 221.45 120.575 218.6 127.798C216.061 134.681 211.132 140.489 204.66 144.224C198.22 148.075 189.423 150 178.268 150ZM178.268 128.52C182.236 128.52 185.148 127.678 187.004 125.993C188.934 124.056 190.228 121.606 190.721 118.953C191.356 115.802 191.667 112.597 191.65 109.386V40.2527C191.674 37.1012 191.362 33.9558 190.721 30.8664C190.101 27.9783 188.862 25.6919 187.004 24.0072C185.145 22.2022 182.233 21.2996 178.268 21.2996C174.551 21.2996 171.763 22.2022 169.905 24.0072C168.046 25.6889 166.807 27.9753 166.187 30.8664C165.548 33.9561 165.237 37.1013 165.258 40.2527V109.386C165.246 112.589 165.495 115.788 166.001 118.953C166.497 121.605 167.79 124.055 169.719 125.993C171.577 127.678 174.427 128.52 178.268 128.52Z" fill="white"></path>
  <path d="M256.92 148.014L237.404 1.80506H263.425L273.833 91.1552L287.048 1.98556H307.678L321.432 90.9747L331.822 1.80506H357.47L338.16 148.014H312.139L297.456 55.4152L283.517 148.014H256.92Z" fill="white"></path>
  <path d="M459.169 150C449.876 150 442.132 148.375 435.936 145.126C429.741 141.754 425.032 136.76 421.811 130.144C418.713 123.409 416.916 114.865 416.421 104.513L442.813 100.181C443.064 106.197 443.683 111.252 444.672 115.343C445.787 119.314 447.398 122.323 449.504 124.368C451.755 126.302 454.678 127.334 457.682 127.256C461.65 127.256 464.314 126.053 465.674 123.646C467.191 121.131 467.963 118.257 467.904 115.343C467.904 109.206 466.355 104.091 463.258 100C460.284 95.7882 456.319 91.5764 451.363 87.3646L435.736 74.1877C430.306 69.781 425.659 64.5365 421.983 58.6643C418.516 52.8881 416.782 45.7882 416.779 37.3646C416.779 25.3309 420.372 16.1252 427.559 9.7473C434.869 3.2491 444.848 3.63336e-06 457.496 3.63336e-06C465.054 3.63336e-06 471.25 1.20337 476.082 3.61011C480.914 6.01685 484.632 9.26595 487.234 13.3574C489.97 17.3489 491.865 21.8274 492.81 26.5343C493.916 31.16 494.6 35.8714 494.854 40.6137L468.648 44.4043C468.459 40.4714 468.024 36.5533 467.347 32.6715C466.851 29.302 465.736 26.6546 464.001 24.7292C462.387 22.8039 459.909 21.8412 456.567 21.8412C452.973 21.8412 450.309 23.1649 448.575 25.8123C446.842 28.3193 445.93 31.2766 445.959 34.296C445.959 39.4705 447.136 43.7425 449.49 47.1119C452.461 50.869 455.824 54.317 459.527 57.4007L474.767 70.3971C481.059 75.6608 486.509 81.8052 490.937 88.6282C495.525 95.367 497.817 103.73 497.814 113.718C497.814 120.578 496.203 126.775 492.981 132.31C489.811 137.798 485.108 142.304 479.414 145.307C473.723 148.436 466.975 150 459.169 150Z" fill="white"></path>
  <path d="M556.351 150C544.951 150 536.092 148.135 529.773 144.404C523.453 140.557 518.993 135.081 516.391 127.978C513.913 120.758 512.673 112.034 512.673 101.805V1.80506H542.969V105.957C542.967 109.519 543.215 113.077 543.712 116.607C544.332 120.096 545.571 122.924 547.429 125.09C549.412 127.256 552.386 128.339 556.351 128.339C560.44 128.339 563.413 127.256 565.272 125.09C567.255 122.924 568.494 120.096 568.989 116.607C569.488 113.077 569.737 109.519 569.733 105.957V1.80506H600.028V101.805C600.028 112.034 598.727 120.758 596.125 127.978C593.647 135.075 589.248 140.551 582.929 144.404C576.61 148.138 567.75 150.003 556.351 150Z" fill="white"></path>
  <path d="M620.868 148.014L623.456 1.80506H655.981L674.567 94.0433L694.468 1.80506H725.879L728.481 148.014H706.178L703.761 48.917L684.618 148.014H665.474L645.401 48.1949L643.357 148.014H620.868Z" fill="white"></path>
  <path d="M750.101 148.014L752.703 1.80506H785.229L803.815 94.0433L823.721 1.80506H855.131L857.733 148.014H835.43L833.014 48.917L813.851 148.014H794.708L774.635 48.1949L772.609 148.014H750.101Z" fill="white"></path>
  <path d="M878.628 148.014V1.80506H909.11V148.014H878.628Z" fill="white"></path>
  <path d="M946.286 148.014V24.0072H923.054V1.80506H1000V24.0072H977.139V148.014H946.286Z" fill="white"></path>
</svg>
